<svg width="108" height="26" xmlns="http://www.w3.org/2000/svg" fill="none">

 <g>
  <title>Layer 1</title>
  <path id="svg_1" fill="#3CDDF3" d="m24.8196,15.1278c0.1186,-0.6915 0.1804,-1.4025 0.1804,-2.1278c0,-6.90356 -5.5964,-12.5 -12.5,-12.5c-4.18604,0 -7.8915,2.05766 -10.16009,5.21671c1.26771,-0.17534 2.52116,-0.09407 3.76332,0.22137c3.13339,0.79571 5.79847,3.02882 7.95907,4.84762l0.172,0.1449c2.2876,1.9264 4.1457,3.4911 6.1386,4.2322c1.2915,0.4803 2.706,0.6328 4.4467,-0.035zm-2.3766,5.4487c-2.2838,2.9926 -5.8879,4.9235 -9.943,4.9235c-6.90356,0 -12.5,-5.5964 -12.5,-12.5c0,-0.3572 0.01498,-0.7108 0.04435,-1.0604c2.0635,-1.4116 3.58588,-1.4708 4.82821,-1.1553c1.83109,0.465 3.63386,1.8601 5.96954,3.8265c0.1387,0.1167 0.2794,0.2356 0.4222,0.3563l0,0c2.0505,1.7329 4.5282,3.8269 7.3658,4.8822c1.2263,0.456 2.497,0.7147 3.8129,0.7272z" clip-rule="evenodd" fill-rule="evenodd"/>
  <path id="svg_2" fill="#ffffff" d="m39.4058,20.4032c-1.1283,0 -2.1051,-0.2124 -2.9303,-0.6371c-0.8083,-0.4248 -1.423,-0.9769 -1.844,-1.6565c-0.421,-0.6966 -0.6315,-1.4271 -0.6315,-2.1917l0,-0.1529l3.4102,0l0,0.1529c0,0.4588 0.1768,0.8665 0.5304,1.2233c0.3537,0.3568 0.8673,0.5352 1.5409,0.5352c0.5558,0 1.002,-0.1275 1.3388,-0.3823c0.3537,-0.2718 0.5305,-0.6371 0.5305,-1.0958c0,-0.4078 -0.1515,-0.7306 -0.4547,-0.9684c-0.3031,-0.2379 -0.682,-0.3908 -1.1367,-0.4587l-1.5156,-0.3059c-0.9936,-0.1868 -1.8946,-0.5861 -2.7029,-1.1977c-0.8083,-0.6116 -1.2125,-1.5376 -1.2125,-2.7778c0,-1.2742 0.4631,-2.26809 1.3893,-2.98164c0.9262,-0.73055 2.1135,-1.09582 3.5618,-1.09582c1.0609,0 1.9787,0.19537 2.7534,0.58613c0.7746,0.39076 1.364,0.90894 1.7682,1.55454c0.4042,0.62861 0.6062,1.30819 0.6062,2.03869l0,0.102l-3.4101,0l0,-0.0765c0,-0.4077 -0.1516,-0.78149 -0.4547,-1.12128c-0.3031,-0.35678 -0.7663,-0.53516 -1.3893,-0.53516c-0.5221,0 -0.9431,0.13591 -1.2631,0.40774c-0.3199,0.27183 -0.4799,0.62861 -0.4799,1.0703c0,0.4078 0.16,0.7306 0.4799,0.9684c0.3368,0.2379 0.7494,0.3993 1.2378,0.4842l1.6672,0.3313c1.0778,0.2379 1.9871,0.6711 2.7281,1.2997c0.741,0.6116 1.1115,1.4866 1.1115,2.6249c0,0.8495 -0.2274,1.597 -0.682,2.2426c-0.4547,0.6456 -1.0862,1.1468 -1.8946,1.5036c-0.7915,0.3398 -1.6756,0.5097 -2.6523,0.5097z"/>
  <path id="svg_3" fill="#ffffff" d="m53.8331,20.4032c-1.1283,0 -2.0124,-0.2634 -2.6524,-0.7901c-0.6399,-0.5266 -1.1114,-1.1043 -1.4146,-1.7329l-0.2021,0l0,7.6198l-3.5112,0l0,-18.75637l3.5112,0l0,2.0897l0.2021,0c0.2695,-0.57764 0.7242,-1.1213 1.3641,-1.63099c0.6399,-0.52667 1.5325,-0.79 2.6776,-0.79c1.7009,0 3.006,0.6371 3.9154,1.91131c0.9262,1.27421 1.3893,2.98165 1.3893,5.12235c0,2.0897 -0.4631,3.7716 -1.3893,5.0458c-0.9094,1.2743 -2.2061,1.9114 -3.8901,1.9114zm-1.263,-2.8033c1.0104,0 1.7598,-0.4077 2.2481,-1.2232c0.5053,-0.8155 0.7579,-1.8009 0.7579,-2.9562c0,-1.1213 -0.2526,-2.0812 -0.7579,-2.8797c-0.4883,-0.81552 -1.2377,-1.22327 -2.2481,-1.22327c-0.9936,0 -1.743,0.40775 -2.2482,1.22327c-0.5052,0.8155 -0.7579,1.7839 -0.7579,2.9052c0,1.1383 0.2527,2.1152 0.7579,2.9307c0.5052,0.8155 1.2546,1.2232 2.2482,1.2232z"/>
  <path id="svg_4" fill="#ffffff" d="m66.7947,20.4032c-1.3978,0 -2.5766,-0.3143 -3.5365,-0.943c-0.943,-0.6456 -1.6503,-1.495 -2.1219,-2.5484c-0.4715,-1.0533 -0.7073,-2.2086 -0.7073,-3.4658c0,-1.2572 0.2274,-2.4125 0.6821,-3.46588c0.4715,-1.07033 1.1872,-1.9283 2.1471,-2.5739c0.9599,-0.6456 2.1387,-0.9684 3.5365,-0.9684c1.3977,0 2.5766,0.3228 3.5365,0.9684c0.9599,0.62861 1.6756,1.46959 2.1471,2.52293c0.4715,1.05335 0.7073,2.20865 0.7073,3.46585c0,1.2572 -0.2358,2.421 -0.7073,3.4913c-0.4715,1.0534 -1.1872,1.9029 -2.1471,2.5485c-0.9599,0.6456 -2.1388,0.9684 -3.5365,0.9684zm0,-2.8543c0.9767,0 1.7093,-0.3907 2.1977,-1.1722c0.5052,-0.7985 0.7578,-1.7924 0.7578,-2.9817c0,-1.1893 -0.2526,-2.1662 -0.7578,-2.9307c-0.4884,-0.78149 -1.221,-1.17225 -2.1977,-1.17225c-0.9767,0 -1.7093,0.39076 -2.1977,1.17225c-0.4883,0.7645 -0.7325,1.7414 -0.7325,2.9307c0,1.1893 0.2442,2.1832 0.7325,2.9817c0.5052,0.7815 1.2378,1.1722 2.1977,1.1722z"/>
  <path id="svg_5" fill="#ffffff" d="m74.8759,6.74363l3.4607,0l0,2.14067l0.1768,0c0.2189,-0.59463 0.6231,-1.09582 1.2125,-1.50357c0.5894,-0.42473 1.3473,-0.6371 2.2735,-0.6371c0.3536,0 0.6567,0.03398 0.9094,0.10194l-0.1516,3.23653c-0.421,-0.11897 -0.8673,-0.17843 -1.3388,-0.17843c-1.0441,0 -1.8188,0.28033 -2.324,0.84093c-0.5052,0.5437 -0.7578,1.4526 -0.7578,2.7269l0,6.7278l-3.4607,0l0,-13.45567z"/>
  <path id="svg_6" fill="#ffffff" d="m88.661,9.49592l0,5.98878c0,0.5946 0.0253,1.0364 0.0758,1.3252c0.0674,0.2888 0.2358,0.5182 0.5052,0.6881c0.2695,0.1699 0.7073,0.2548 1.3136,0.2548c0.3536,0 0.7157,-0.034 1.0862,-0.1019l0,2.4465c-0.1853,0.0339 -0.5221,0.0764 -1.0104,0.1274c-0.4716,0.0509 -0.9347,0.0764 -1.3894,0.0764c-1.2293,0 -2.1471,-0.1784 -2.7534,-0.5351c-0.5894,-0.3738 -0.9599,-0.8325 -1.1114,-1.3762c-0.1516,-0.5606 -0.2274,-1.2742 -0.2274,-2.1407l0,-6.75328l-2.2229,0l0,-2.75229l2.2482,0l0,-4.38328l3.4859,0l0,4.38328l2.9808,0l0,2.75229l-2.9808,0z"/>
  <path id="svg_7" fill="#ffffff" d="m93.8116,6.74363l3.486,0l0,13.45567l-3.486,0l0,-13.45567zm1.7178,-2.31906c-0.5558,0 -1.0189,-0.18689 -1.3894,-0.56066c-0.3705,-0.39075 -0.5557,-0.85796 -0.5557,-1.40163c0,-0.56065 0.1852,-1.02786 0.5557,-1.40163c0.3705,-0.37377 0.8336,-0.56065 1.3894,-0.56065c0.5557,0 1.0188,0.19538 1.3893,0.58614c0.3705,0.37377 0.5557,0.83248 0.5557,1.37614c0,0.54367 -0.1852,1.01088 -0.5557,1.40163c-0.3705,0.37377 -0.8336,0.56066 -1.3893,0.56066z"/>
  <path id="svg_8" fill="#ffffff" d="m104.703,9.49592l0,5.98878c0,0.5946 0.026,1.0364 0.076,1.3252c0.068,0.2888 0.236,0.5182 0.505,0.6881c0.27,0.1699 0.708,0.2548 1.314,0.2548c0.354,0 0.716,-0.034 1.086,-0.1019l0,2.4465c-0.185,0.0339 -0.522,0.0764 -1.01,0.1274c-0.472,0.0509 -0.935,0.0764 -1.39,0.0764c-1.229,0 -2.147,-0.1784 -2.753,-0.5351c-0.589,-0.3738 -0.96,-0.8325 -1.111,-1.3762c-0.152,-0.5606 -0.228,-1.2742 -0.228,-2.1407l0,-6.75328l-2.2227,0l0,-2.75229l2.2487,0l0,-4.38328l3.485,0l0,4.38328l2.981,0l0,2.75229l-2.981,0z"/>
 </g>
</svg>